<?xml version="1.0" standalone="no"?>
<!DOCTYPE svg PUBLIC "-//W3C//DTD SVG 20010904//EN"
 "http://www.w3.org/TR/2001/REC-SVG-20010904/DTD/svg10.dtd">
<svg version="1.0" xmlns="http://www.w3.org/2000/svg"
 width="300.000000pt" height="300.000000pt" viewBox="0 0 300.000000 300.000000"
 preserveAspectRatio="xMidYMid meet">
<metadata>
Created by potrace 1.14, written by Peter Selinger 2001-2017
</metadata>
<g transform="translate(0.000000,300.000000) scale(0.100000,-0.100000)"
fill="#000000" stroke="none">
<path d="M1331 2980 c-209 -29 -413 -100 -590 -204 -34 -20 -71 -36 -81 -36
-25 0 -224 -192 -309 -299 -244 -306 -362 -627 -347 -942 21 -435 162 -759
465 -1069 52 -52 100 -105 109 -118 10 -15 17 -19 22 -12 5 8 30 -4 75 -35 87
-59 267 -147 370 -179 169 -54 268 -69 450 -70 184 -1 255 8 425 56 499 140
891 538 1025 1040 72 270 72 506 0 776 -14 52 -25 100 -25 108 0 27 -170 366
-215 429 -108 152 -251 263 -500 388 -152 77 -281 122 -438 152 -97 19 -345
28 -436 15z m448 -61 c57 -11 141 -32 185 -47 l81 -27 -105 -5 c-118 -6 -145
-17 -217 -83 -25 -23 -50 -42 -56 -43 -30 -5 -219 -128 -238 -155 -31 -44 -35
-108 -13 -181 l18 -61 -34 -26 c-19 -14 -55 -45 -80 -68 l-45 -42 1 -113 c1
-80 9 -151 28 -243 32 -154 45 -172 154 -204 96 -29 144 -27 220 9 35 17 69
30 76 30 19 0 44 -31 76 -96 43 -86 40 -111 -20 -183 -27 -33 -54 -62 -60 -66
-16 -10 -12 -35 15 -100 30 -73 31 -99 6 -145 -94 -168 -121 -256 -102 -325
18 -68 45 -101 108 -131 52 -26 68 -29 154 -29 l96 1 -50 -81 c-82 -132 -157
-245 -223 -338 -45 -61 -59 -87 -47 -87 44 0 -4 -11 -92 -20 -164 -19 -399 11
-580 73 -84 29 -260 116 -330 163 -88 60 -86 58 -74 92 14 41 -13 338 -35 381
-10 18 -29 34 -51 41 -60 20 -64 46 -21 135 38 78 40 109 8 119 -9 3 -30 16
-46 29 -25 20 -30 34 -37 87 -13 112 -85 185 -180 181 -46 -1 -53 2 -99 45
-28 26 -50 51 -50 55 0 5 19 28 43 51 34 35 48 60 70 131 35 109 51 121 170
131 151 12 208 42 227 119 39 152 94 253 153 283 17 10 97 41 176 70 79 29
148 59 152 66 5 7 9 50 9 95 0 88 -25 176 -58 206 -14 12 -216 74 -309 94 -13
3 -20 9 -17 14 11 18 239 126 319 152 240 77 479 92 724 46z m351 -184 c43
-72 143 -332 174 -453 50 -190 76 -512 43 -525 -7 -3 -26 -37 -41 -76 -15 -39
-30 -71 -33 -71 -3 0 -23 16 -46 35 -51 44 -122 78 -206 100 -86 22 -122 17
-139 -17 -20 -43 -43 -50 -88 -28 -42 22 -52 21 -134 -18 -67 -32 -104 -32
-197 -4 -81 25 -68 5 -108 172 -10 41 -20 128 -23 192 l-4 118 32 27 c82 69
120 106 125 124 4 11 -3 44 -14 74 -12 31 -21 65 -21 76 0 56 55 106 199 179
34 18 86 53 116 79 30 27 69 52 87 58 18 5 82 9 141 9 l108 -1 29 -50z m-1380
-84 c36 -11 103 -29 150 -41 47 -11 95 -25 107 -30 35 -15 65 -94 67 -175 l1
-70 -130 -45 c-159 -56 -203 -78 -243 -125 -43 -48 -60 -82 -102 -205 -34
-101 -37 -105 -72 -117 -21 -7 -86 -17 -145 -23 -60 -6 -118 -18 -130 -26 -27
-17 -49 -58 -70 -128 -22 -75 -38 -100 -84 -137 l-42 -33 6 125 c3 86 13 154
31 224 35 137 141 348 246 494 98 135 302 345 328 337 9 -3 46 -14 82 -25z
m1292 -970 c76 -26 117 -48 161 -87 47 -43 87 -45 116 -8 12 15 21 32 21 39 0
7 7 19 16 26 15 12 16 11 11 -6 -3 -11 -8 -47 -12 -80 -13 -122 -56 -308 -110
-472 -30 -92 -59 -174 -64 -181 -6 -11 -13 -7 -30 14 -26 34 -26 37 4 131 14
43 25 101 25 130 0 62 -19 90 -179 260 -142 152 -156 180 -103 207 16 8 34 22
41 30 17 21 36 20 103 -3z m908 -91 c0 -22 -2 -40 -4 -40 -2 0 -6 18 -8 40 -2
22 0 40 4 40 5 0 8 -18 8 -40z m-220 5 c-25 -13 -49 -24 -55 -24 -5 0 10 11
35 24 25 13 50 24 55 24 6 0 -10 -11 -35 -24z m-73 -31 c-3 -3 -12 -4 -19 -1
-8 3 -5 6 6 6 11 1 17 -2 13 -5z m-656 -196 c144 -159 144 -160 104 -278 -14
-40 -25 -95 -25 -122 0 -41 5 -54 35 -87 l36 -39 -45 -90 -45 -90 -52 -12
c-64 -16 -174 -8 -217 14 -18 9 -42 31 -53 49 -39 61 -8 203 64 299 50 66 53
142 11 231 l-17 35 52 63 c28 35 54 74 57 87 4 12 9 22 13 22 4 0 41 -37 82
-82z m946 20 c-2 -13 -4 -3 -4 22 0 25 2 35 4 23 2 -13 2 -33 0 -45z m-2761
-69 c28 -17 45 -20 79 -16 73 11 116 -38 130 -148 6 -43 14 -57 54 -96 l48
-46 -28 -54 c-49 -94 -35 -160 40 -194 46 -20 48 -28 61 -202 5 -62 11 -116
13 -120 3 -5 2 -16 -2 -25 -5 -14 -27 6 -103 90 -186 205 -265 325 -333 507
-26 68 -69 268 -79 370 l-7 60 46 -52 c25 -28 61 -61 81 -74z m2751 -21 c-3
-7 -5 -2 -5 12 0 14 2 19 5 13 2 -7 2 -19 0 -25z m-10 -50 c-3 -8 -6 -5 -6 6
-1 11 2 17 5 13 3 -3 4 -12 1 -19z m-237 -582 c0 -2 -8 -10 -17 -17 -16 -13
-17 -12 -4 4 13 16 21 21 21 13z m-30 -40 c0 -2 -8 -10 -17 -17 -16 -13 -17
-12 -4 4 13 16 21 21 21 13z m-110 -129 c0 -2 -12 -14 -27 -28 l-28 -24 24 28
c23 25 31 32 31 24z m-140 -121 c0 -2 -8 -10 -17 -17 -16 -13 -17 -12 -4 4 13
16 21 21 21 13z m-40 -30 c0 -2 -8 -10 -17 -17 -16 -13 -17 -12 -4 4 13 16 21
21 21 13z m-603 -262 c-3 -3 -12 -4 -19 -1 -8 3 -5 6 6 6 11 1 17 -2 13 -5z"/>
</g>
</svg>
